<?xml version="1.0" encoding="utf-8"?>
<!-- Generator: Adobe Illustrator 25.3.1, SVG Export Plug-In . SVG Version: 6.00 Build 0)  -->
<svg version="1.1" id="Layer_1" xmlns="http://www.w3.org/2000/svg" xmlns:xlink="http://www.w3.org/1999/xlink" x="0px" y="0px"
	 viewBox="0 0 168.3 49.9" style="enable-background:new 0 0 168.3 49.9;" xml:space="preserve">
<style type="text/css">
	.st0{stroke:#A2A2A2;stroke-miterlimit:10;}
	.st1{fill:#FFFFFF;stroke:#FFFFFF;stroke-width:0.2;stroke-miterlimit:10;}
	.st2{fill:#FFFFFF;}
	.st3{fill:url(#SVGID_1_);}
	.st4{fill:url(#SVGID_2_);}
	.st5{fill:url(#SVGID_3_);}
	.st6{fill:url(#SVGID_4_);}
	.st7{opacity:0.2;enable-background:new    ;}
	.st8{opacity:0.12;enable-background:new    ;}
	.st9{opacity:0.25;fill:#FFFFFF;enable-background:new    ;}
</style>
<path class="st0" d="M11.8,48.8c-0.4,0-0.8,0-1.3,0c-0.9,0-1.8-0.1-2.6-0.2c-0.8-0.1-1.6-0.4-2.3-0.7s-1.4-0.7-2-1.3
	c-0.6-0.5-1.1-1.1-1.4-1.7c-0.4-0.6-0.6-1.3-0.8-2.1c-0.1-0.8-0.2-1.6-0.2-2.3c0-0.3,0-1.1,0-1.1V10.5c0,0,0-0.9,0-1.1
	c0-0.8,0.1-1.6,0.2-2.3C1.5,6.4,1.7,5.7,2.1,5C2.5,4.4,3,3.8,3.5,3.3c0.6-0.5,1.3-1,2-1.3C6.3,1.7,7,1.4,7.8,1.3
	c0.9-0.1,1.8-0.2,2.6-0.2h1.3h144.8h1.3c0.9,0,1.8,0.1,2.6,0.2s1.6,0.4,2.4,0.7c0.7,0.3,1.4,0.7,2,1.3c0.6,0.5,1.1,1.1,1.4,1.8
	c0.4,0.6,0.6,1.3,0.8,2.1c0.1,0.8,0.2,1.6,0.2,2.4c0,0.4,0,0.7,0,1.1c0,0.5,0,0.9,0,1.4V38c0,0.5,0,0.9,0,1.3c0,0.4,0,0.8,0,1.2
	c0,0.8-0.1,1.5-0.2,2.3c-0.1,0.7-0.4,1.4-0.8,2.1c-0.4,0.6-0.9,1.2-1.4,1.7c-0.6,0.5-1.3,1-2,1.3s-1.5,0.6-2.4,0.7
	c-0.9,0.1-1.8,0.2-2.6,0.2c-0.4,0-0.8,0-1.3,0h-1.5H11.8z"/>
<g transform="translate(0 0)">
	<g transform="translate(51.563 8.562)">
		<path class="st1" d="M7.6,3.8c0,0.9-0.3,1.8-0.9,2.5C5.9,7.1,4.9,7.5,3.9,7.4C1.7,7.4,0,5.7,0,3.5c0-2.1,1.7-3.9,3.9-3.9
			c0.5,0,1.1,0.1,1.5,0.3c0.5,0.2,0.9,0.5,1.2,0.8L5.9,1.4c-0.5-0.6-1.3-0.9-2-0.9c-1.7,0-3,1.4-3,3c0,1.7,1.4,3,3,3
			c0.8,0,1.5-0.3,2.1-0.8c0.4-0.4,0.6-1,0.6-1.5H3.9v-1h3.6C7.5,3.4,7.6,3.6,7.6,3.8z"/>
		<path class="st1" d="M13.3,0.7H9.9v2.4H13V4H9.9v2.4h3.4v0.9H8.9v-7.5h4.4L13.3,0.7z"/>
		<path class="st1" d="M17.4,7.2h-1V0.7h-2.1v-0.9h5.1v0.9h-2.1L17.4,7.2z"/>
		<path class="st1" d="M23.2,7.2v-7.4h1v7.5L23.2,7.2L23.2,7.2z"/>
		<path class="st1" d="M28.4,7.2h-1V0.7h-2.1v-0.9h5.1v0.9h-2.1L28.4,7.2z"/>
		<path class="st1" d="M40.2,6.2c-1.5,1.5-4,1.5-5.5,0c-1.5-1.6-1.5-4,0-5.5s4-1.5,5.5,0l0,0C41.7,2.3,41.7,4.7,40.2,6.2L40.2,6.2z
			 M35.4,5.7c1.1,1.1,2.9,1.1,4.1,0c1.1-1.2,1.1-3.1,0-4.3c-1.1-1.1-2.9-1.1-4.1,0C34.3,2.6,34.3,4.4,35.4,5.7z"/>
		<path class="st1" d="M42.7,7.2v-7.4h1.2l3.6,5.8l0,0V4.2v-4.4h1v7.5h-1l-3.8-6.1l0,0v1.4v4.7L42.7,7.2z"/>
	</g>
	<path class="st2" d="M85,26.6c-2.9,0-5.3,2.4-5.3,5.3s2.4,5.3,5.3,5.3s5.3-2.4,5.3-5.3s-2.3-5.3-5.2-5.3C85.1,26.6,85,26.6,85,26.6
		z M85,35.1c-1.8,0.1-3.3-1.2-3.4-3s1.2-3.3,3-3.4s3.3,1.2,3.4,3c0,0.1,0,0.2,0,0.2C88,33.6,86.7,35.1,85,35.1L85,35.1z M73.3,26.6
		C70.4,26.6,68,29,68,32s2.4,5.3,5.3,5.3s5.3-2.4,5.3-5.3s-2.3-5.3-5.2-5.3C73.5,26.6,73.4,26.6,73.3,26.6L73.3,26.6z M73.3,35.1
		c-1.8,0.1-3.3-1.2-3.4-3s1.2-3.3,3-3.4s3.3,1.2,3.4,3c0,0.1,0,0.2,0,0.2C76.4,33.6,75.1,35.1,73.3,35.1
		C73.4,35.1,73.4,35.1,73.3,35.1L73.3,35.1z M59.5,28.2v2.3h5.4c-0.1,1.1-0.5,2.1-1.2,2.8c-1.1,1.1-2.6,1.7-4.2,1.6
		c-3.3,0-6-2.7-6-6s2.7-6,6-6c1.5,0,3,0.6,4.1,1.6l1.6-1.6c-1.5-1.5-3.5-2.3-5.6-2.3c-4.5-0.1-8.3,3.6-8.3,8.1
		c-0.1,4.5,3.6,8.3,8.1,8.3c0.1,0,0.1,0,0.2,0c2.2,0.1,4.2-0.8,5.7-2.3c1.3-1.4,2-3.3,1.9-5.3c0-0.5,0-0.9-0.1-1.4L59.5,28.2z
		 M116,30c-0.7-2-2.5-3.3-4.5-3.4c-2.8,0-5,2.3-5,5.1c0,0.1,0,0.2,0,0.2c-0.1,2.9,2.2,5.2,5.1,5.3c0.1,0,0.1,0,0.2,0
		c1.8,0,3.4-0.9,4.4-2.3l-1.8-1.2c-0.6,0.9-1.5,1.5-2.6,1.5s-2.1-0.6-2.6-1.6l7.1-2.9L116,30z M108.8,31.8c-0.1-1.6,1.1-3,2.7-3.1
		c0,0,0,0,0.1,0c0.8-0.1,1.6,0.4,2,1.1L108.8,31.8z M103,37h2.3V21.3H103V37z M99.2,27.8L99.2,27.8c-0.8-0.8-1.8-1.2-2.9-1.2
		c-2.9,0.1-5.2,2.6-5.1,5.5c0.1,2.8,2.3,5,5.1,5.1c1.1,0,2.1-0.4,2.8-1.2h0.1v0.8c0,2-1.1,3.1-2.8,3.1c-1.2,0-2.3-0.8-2.7-1.9
		l-2,0.8c0.8,1.9,2.6,3.1,4.7,3.1c2.7,0,5-1.6,5-5.5v-9.5h-2.2V27.8z M96.5,35.1c-1.8-0.1-3.1-1.7-2.9-3.5c0.1-1.6,1.4-2.8,2.9-2.9
		c1.8,0.2,3,1.8,2.8,3.6C99.2,33.8,98,35,96.5,35.1z M126.9,21.3h-5.6V37h2.3v-5.9h3.2c2.7,0.1,5-1.9,5.1-4.6s-1.9-5-4.6-5.1
		C127.3,21.3,127.1,21.3,126.9,21.3L126.9,21.3z M127,28.8h-3.3v-5.3h3.3c1.5,0,2.7,1.1,2.7,2.6S128.5,28.9,127,28.8
		C127.1,28.8,127,28.8,127,28.8z M141.3,26.6c-1.7-0.1-3.4,0.8-4.2,2.4l2.1,0.9c0.4-0.8,1.3-1.2,2.1-1.1c1.2-0.1,2.3,0.8,2.4,2V31
		c-0.7-0.4-1.6-0.6-2.4-0.6c-2.2,0-4.5,1.2-4.5,3.5c0.1,2,1.8,3.5,3.8,3.4h0.1c1.2,0.1,2.3-0.5,3-1.5h0.1v1.2h2.2v-6
		C146.1,28.1,144.1,26.6,141.3,26.6L141.3,26.6z M141.1,35.1c-0.8,0-1.8-0.4-1.8-1.3c0-1.2,1.3-1.7,2.5-1.7c0.7,0,1.5,0.2,2.1,0.5
		C143.6,34.1,142.4,35.1,141.1,35.1L141.1,35.1z M154.2,26.9l-2.7,6.8h-0.1l-2.8-6.8h-2.5l4.2,9.4l-2.4,5.3h2.4l6.4-14.7
		C156.7,27,154.2,27,154.2,26.9z M133.2,37h2.3V21.3h-2.3V37z"/>
	<g transform="translate(12.436 8.904)">
		
			<linearGradient id="SVGID_1_" gradientUnits="userSpaceOnUse" x1="-2524.5818" y1="89.9913" x2="-2525.8796" y2="89.3222" gradientTransform="matrix(16.1205 0 0 31.262 40712.2266 -2783.6035)">
			<stop  offset="0" style="stop-color:#00A0FF"/>
			<stop  offset="7.000001e-03" style="stop-color:#00A1FF"/>
			<stop  offset="0.26" style="stop-color:#00BEFF"/>
			<stop  offset="0.512" style="stop-color:#00D2FF"/>
			<stop  offset="0.76" style="stop-color:#00DFFF"/>
			<stop  offset="1" style="stop-color:#00E3FF"/>
		</linearGradient>
		<path class="st3" d="M0.6,0.1C0.2,0.6,0,1.2,0,1.8v27.6c0,0.6,0.2,1.3,0.6,1.8l0.1,0.1l15.4-15.4v-0.4L0.6,0.1L0.6,0.1z"/>
		
			<linearGradient id="SVGID_2_" gradientUnits="userSpaceOnUse" x1="-2479.4397" y1="261.4463" x2="-2481.8208" y2="261.4463" gradientTransform="matrix(12.6735 0 0 10.667 31452.8828 -2773.2974)">
			<stop  offset="0" style="stop-color:#FFE000"/>
			<stop  offset="0.409" style="stop-color:#FFBD00"/>
			<stop  offset="0.775" style="stop-color:#FFA500"/>
			<stop  offset="1" style="stop-color:#FF9C00"/>
		</linearGradient>
		<path class="st4" d="M21.3,21l-5.2-5.2v-0.4l5.2-5.2l0.1,0.1l6.1,3.5c1.7,1,1.7,2.6,0,3.6l-6.1,3.5L21.3,21z"/>
		
			<linearGradient id="SVGID_3_" gradientUnits="userSpaceOnUse" x1="-2562.5107" y1="173.7677" x2="-2563.8738" y2="171.9988" gradientTransform="matrix(20.807 0 0 16.047 53323.5508 -2768.0137)">
			<stop  offset="0" style="stop-color:#FF3A44"/>
			<stop  offset="1" style="stop-color:#C31162"/>
		</linearGradient>
		<path class="st5" d="M21.4,20.9l-5.3-5.3L0.6,31.2c0.7,0.6,1.8,0.7,2.6,0.1L21.4,20.9"/>
		
			<linearGradient id="SVGID_4_" gradientUnits="userSpaceOnUse" x1="-2563.5574" y1="175.5218" x2="-2562.9482" y2="174.7317" gradientTransform="matrix(20.807 0 0 16.047 53323.5469 -2784.0488)">
			<stop  offset="0" style="stop-color:#32A071"/>
			<stop  offset="6.800000e-02" style="stop-color:#2DA771"/>
			<stop  offset="0.476" style="stop-color:#15CF74"/>
			<stop  offset="0.801" style="stop-color:#06E775"/>
			<stop  offset="1" style="stop-color:#00F076"/>
		</linearGradient>
		<path class="st6" d="M21.4,10.4L3.2,0C2.4-0.6,1.3-0.6,0.6,0.1l15.5,15.5L21.4,10.4z"/>
		<g transform="translate(0 21.187)">
			<path class="st7" d="M21.3-0.4L3.2,9.9c-0.7,0.6-1.8,0.6-2.5,0l0,0L0.6,10l0,0l0.1,0.1l0,0c0.7,0.6,1.8,0.5,2.5,0L21.4-0.3
				L21.3-0.4z"/>
			<path class="st8" d="M0.6,9.8C0.2,9.2,0,8.7,0,8.1v0.2c0,0.6,0.2,1.3,0.6,1.8V9.8L0.6,9.8z"/>
		</g>
		<path class="st8" d="M27.5,17.3l-6.2,3.5l0.1,0.1l6.1-3.5c0.7-0.3,1.2-1,1.3-1.8l0,0C28.6,16.4,28.2,17,27.5,17.3z"/>
		<path class="st9" d="M3.2,0.2L27.5,14c0.7,0.3,1.2,0.9,1.3,1.6l0,0c-0.1-0.8-0.6-1.5-1.3-1.8L3.2,0C1.4-1,0-0.1,0,1.8V2
			C0,0,1.4-0.8,3.2,0.2z"/>
	</g>
</g>
</svg>
