<?xml version="1.0" encoding="utf-8"?>
<!-- Generator: Adobe Illustrator 25.3.1, SVG Export Plug-In . SVG Version: 6.00 Build 0)  -->
<svg version="1.1" id="Layer_1" xmlns="http://www.w3.org/2000/svg" xmlns:xlink="http://www.w3.org/1999/xlink" x="0px" y="0px"
	 viewBox="0 0 168.3 49.9" style="enable-background:new 0 0 168.3 49.9;" xml:space="preserve">
<style type="text/css">
	.st0{stroke:#A2A2A2;stroke-miterlimit:10;}
	.st1{fill:#FFFFFF;}
</style>
<path class="st0" d="M11.8,48.8c-0.4,0-0.8,0-1.3,0c-0.9,0-1.8-0.1-2.6-0.2c-0.8-0.1-1.6-0.4-2.3-0.7c-0.7-0.3-1.4-0.7-2-1.3
	c-0.6-0.5-1.1-1.1-1.4-1.7c-0.4-0.6-0.6-1.3-0.8-2.1c-0.1-0.8-0.2-1.6-0.2-2.3c0-0.3,0-1.1,0-1.1V10.5c0,0,0-0.9,0-1.1
	c0-0.8,0.1-1.6,0.2-2.3C1.5,6.4,1.7,5.7,2.1,5C2.5,4.4,3,3.8,3.5,3.3c0.6-0.5,1.3-1,2-1.3C6.3,1.7,7,1.4,7.8,1.3
	c0.9-0.1,1.8-0.2,2.6-0.2l1.3,0h144.8l1.3,0c0.9,0,1.8,0.1,2.6,0.2c0.8,0.1,1.6,0.4,2.4,0.7c0.7,0.3,1.4,0.7,2,1.3
	c0.6,0.5,1.1,1.1,1.4,1.8c0.4,0.6,0.6,1.3,0.8,2.1c0.1,0.8,0.2,1.6,0.2,2.4c0,0.4,0,0.7,0,1.1c0,0.5,0,0.9,0,1.4V38
	c0,0.5,0,0.9,0,1.3c0,0.4,0,0.8,0,1.2c0,0.8-0.1,1.5-0.2,2.3c-0.1,0.7-0.4,1.4-0.8,2.1c-0.4,0.6-0.9,1.2-1.4,1.7
	c-0.6,0.5-1.3,1-2,1.3c-0.7,0.3-1.5,0.6-2.4,0.7c-0.9,0.1-1.8,0.2-2.6,0.2c-0.4,0-0.8,0-1.3,0H155L11.8,48.8z"/>
<g transform="translate(14.928 10.873)">
	<g transform="translate(0)">
		<path class="st1" d="M19.4,15.2c0-2.2,1.2-4.3,3.1-5.4C21.3,8,19.3,7,17.2,6.9c-2.2-0.2-4.3,1.3-5.5,1.3c-1.1,0-2.9-1.3-4.7-1.3
			C4.6,7,2.4,8.4,1.2,10.5C-1.3,14.9,0.6,21.4,3,24.9c1.2,1.7,2.6,3.7,4.5,3.6c1.8-0.1,2.5-1.2,4.7-1.2c2.2,0,2.8,1.2,4.7,1.1
			c1.9,0,3.2-1.7,4.3-3.5c0.9-1.2,1.5-2.6,2-4C20.9,19.9,19.4,17.7,19.4,15.2z"/>
		<path class="st1" d="M15.8,4.6c1.1-1.3,1.6-2.9,1.5-4.6c-1.6,0.2-3.1,0.9-4.2,2.2C12,3.4,11.4,5,11.5,6.6
			C13.2,6.6,14.8,5.9,15.8,4.6z"/>
	</g>
	<g transform="translate(35.901 11.411)">
		<path class="st1" d="M9.8,11.6H3.9l-1.4,4.2H0L5.6,0.3h2.6l5.6,15.5h-2.5L9.8,11.6z M4.5,9.6h4.7L6.9,2.8H6.8L4.5,9.6z"/>
		<path class="st1" d="M25.9,10.1c0,3.5-1.9,5.8-4.7,5.8c-1.5,0.1-2.8-0.7-3.6-2h-0.1v5.6h-2.3v-15h2.2v1.9h0c0.7-1.3,2.1-2,3.6-2
			C24,4.3,25.9,6.6,25.9,10.1z M23.5,10.1c0-2.3-1.2-3.8-3-3.8c-1.8,0-3,1.5-3,3.8c0,2.3,1.2,3.8,3,3.8
			C22.3,13.9,23.5,12.4,23.5,10.1z"/>
		<path class="st1" d="M38.3,10.1c0,3.5-1.9,5.8-4.7,5.8c-1.5,0.1-2.8-0.7-3.6-2H30v5.6h-2.3v-15h2.2v1.9h0c0.7-1.3,2.1-2,3.6-2
			C36.4,4.3,38.3,6.6,38.3,10.1z M35.9,10.1c0-2.3-1.2-3.8-3-3.8c-1.8,0-3,1.5-3,3.8c0,2.3,1.2,3.8,3,3.8
			C34.7,13.9,35.9,12.4,35.9,10.1z"/>
		<path class="st1" d="M46.5,11.4c0.2,1.5,1.7,2.5,3.7,2.5c2,0,3.4-1,3.4-2.4c0-1.2-0.8-1.9-2.9-2.4l-2-0.5c-2.8-0.7-4.2-2-4.2-4.2
			c0-2.7,2.3-4.5,5.6-4.5c3.3,0,5.5,1.8,5.6,4.5h-2.3C53.3,3,52,2,50.1,2S47,3,47,4.3c0,1.1,0.8,1.7,2.8,2.2L51.5,7
			c3.2,0.8,4.5,2,4.5,4.3c0,2.9-2.3,4.7-6,4.7c-3.4,0-5.8-1.8-5.9-4.6L46.5,11.4z"/>
		<path class="st1" d="M61,1.8v2.7h2.1v1.8H61v6.2c0,1,0.4,1.4,1.4,1.4c0.3,0,0.5,0,0.8-0.1v1.8c-0.4,0.1-0.9,0.1-1.3,0.1
			c-2.3,0-3.2-0.9-3.2-3V6.3H57V4.5h1.6V1.8H61z"/>
		<path class="st1" d="M64.4,10.1c0-3.6,2.1-5.8,5.4-5.8s5.4,2.2,5.4,5.8s-2.1,5.8-5.4,5.8S64.4,13.7,64.4,10.1z M72.7,10.1
			c0-2.4-1.1-3.9-3-3.9s-3,1.4-3,3.9c0,2.4,1.1,3.9,3,3.9S72.7,12.5,72.7,10.1z"/>
		<path class="st1" d="M77,4.5h2.2v1.9h0.1c0.3-1.2,1.4-2.1,2.7-2c0.3,0,0.5,0,0.8,0.1v2.2c-0.3-0.1-0.7-0.1-1-0.1
			c-1.3-0.1-2.4,1-2.4,2.2c0,0.1,0,0.2,0,0.4v6.7H77V4.5z"/>
		<path class="st1" d="M93.5,12.4c-0.3,2-2.3,3.5-4.9,3.5c-3.3,0-5.3-2.2-5.3-5.7s2.1-5.8,5.2-5.8c3.1,0,5.1,2.1,5.1,5.6v0.8h-8v0.1
			c-0.1,1.6,1,3,2.7,3.2c0.1,0,0.2,0,0.4,0c1.1,0.1,2.2-0.5,2.6-1.6L93.5,12.4z M85.6,9.1h5.6c0.1-1.5-1.1-2.8-2.6-2.9
			c-0.1,0-0.1,0-0.2,0C86.9,6.2,85.6,7.5,85.6,9.1C85.6,9,85.6,9,85.6,9.1z"/>
	</g>
</g>
<g transform="translate(52.38 10.52)">
	<path class="st1" d="M2.7,0.4c2.2,0,3.5,1.4,3.5,3.7c0,2.4-1.3,3.7-3.5,3.7H0V0.4H2.7z M1.2,6.8h1.4c1.6,0,2.5-1,2.5-2.7
		c0.2-1.3-0.7-2.5-2-2.6c-0.1,0-0.3,0-0.4,0H1.2L1.2,6.8z"/>
	<path class="st1" d="M7.5,5c0-1.8,1-2.9,2.7-2.9s2.6,1.1,2.6,2.9s-1,2.9-2.6,2.9S7.5,6.8,7.5,5z M11.6,5c0-1.2-0.5-1.9-1.5-1.9
		S8.6,3.8,8.6,5s0.5,1.9,1.5,1.9S11.7,6.2,11.6,5z"/>
	<path class="st1" d="M19.8,7.8h-1.2l-1.2-4.1h-0.1l-1.2,4.1h-1.1l-1.5-5.6h1.1l1,4.3h0.1L17,2.2H18l1.2,4.3h0.1l1-4.3h1.1L19.8,7.8
		z"/>
	<path class="st1" d="M22.7,2.2h1.1v0.9h0.1c0.3-0.7,1-1.1,1.7-1c1-0.1,1.9,0.7,2,1.7c0,0.1,0,0.3,0,0.4v3.6h-1.1V4.5
		c0-0.9-0.4-1.4-1.2-1.4c-0.7,0-1.3,0.5-1.3,1.2c0,0.1,0,0.1,0,0.2v3.3h-1.1V2.2z"/>
	<path class="st1" d="M29.2,0h1.1v7.8h-1.1V0z"/>
	<path class="st1" d="M31.9,5c0-1.8,1-2.9,2.7-2.9s2.6,1.1,2.6,2.9s-1,2.9-2.6,2.9S31.9,6.8,31.9,5z M36,5c0-1.2-0.5-1.9-1.5-1.9
		S33,3.8,33,5s0.5,1.9,1.5,1.9S36,6.2,36,5z"/>
	<path class="st1" d="M38.3,6.2c0-1,0.8-1.6,2.1-1.7l1.5-0.1V4c0-0.6-0.4-0.9-1.1-0.9c-0.6,0-1,0.2-1.2,0.6h-1.1
		c0.1-1,1-1.6,2.3-1.6C42.2,2.1,43,2.8,43,4v3.8H42V7h-0.1c-0.4,0.6-1,0.9-1.7,0.9c-0.9,0.1-1.8-0.6-1.9-1.5
		C38.3,6.3,38.3,6.3,38.3,6.2z M41.9,5.7V5.3l-1.4,0.1c-0.8,0.1-1.1,0.3-1.1,0.8s0.4,0.8,1,0.8C41.2,7,41.8,6.5,41.9,5.7
		C41.9,5.8,41.9,5.8,41.9,5.7L41.9,5.7z"/>
	<path class="st1" d="M44.5,5c0-1.8,0.9-2.9,2.3-2.9c0.7,0,1.4,0.4,1.7,1h0.1V0h1.1v7.8h-1.1V6.9h-0.1c-0.4,0.6-1,1-1.8,1
		C45.4,7.9,44.5,6.8,44.5,5z M45.6,5c0,1.2,0.6,1.9,1.5,1.9s1.5-0.7,1.5-1.9s-0.6-1.9-1.5-1.9S45.6,3.8,45.6,5z"/>
	<path class="st1" d="M54.3,5c0-1.8,1-2.9,2.7-2.9s2.6,1.1,2.6,2.9s-1,2.9-2.6,2.9S54.3,6.8,54.3,5z M58.5,5c0-1.2-0.5-1.9-1.5-1.9
		S55.5,3.8,55.5,5S56,6.9,57,6.9S58.5,6.2,58.5,5z"/>
	<path class="st1" d="M61.1,2.2h1.1v0.9h0.1c0.3-0.7,1-1.1,1.7-1c1-0.1,1.9,0.7,2,1.7c0,0.1,0,0.3,0,0.4v3.6h-1.1V4.5
		c0-0.9-0.4-1.4-1.2-1.4c-0.7,0-1.3,0.5-1.3,1.2c0,0.1,0,0.1,0,0.2v3.3h-1.1V2.2z"/>
	<path class="st1" d="M72.1,0.8v1.4h1.2v0.9h-1.2V6c0,0.6,0.2,0.8,0.8,0.8c0.1,0,0.3,0,0.4,0v0.9c-0.2,0-0.4,0.1-0.6,0.1
		c-1.2,0-1.7-0.4-1.7-1.5V3.2h-0.9V2.2H71V0.8H72.1z"/>
	<path class="st1" d="M74.9,0H76v3.1H76c0.3-0.7,1-1.1,1.7-1c1-0.1,1.9,0.7,1.9,1.7c0,0.1,0,0.2,0,0.3v3.6h-1.1V4.5
		c0-0.9-0.4-1.4-1.2-1.4C76.7,3,76,3.6,76,4.3c0,0.1,0,0.1,0,0.2v3.3h-1.1V0z"/>
	<path class="st1" d="M86.1,6.3c-0.3,1.1-1.3,1.7-2.4,1.6c-1.6,0-2.6-1.1-2.6-2.9s1-2.9,2.6-2.9c1.6,0,2.5,1.1,2.5,2.8v0.4h-4v0.1
		c-0.1,0.8,0.5,1.5,1.4,1.6c0,0,0.1,0,0.1,0c0.5,0.1,1.1-0.2,1.3-0.7H86.1z M82.2,4.5h2.8c0.1-0.7-0.5-1.4-1.3-1.5c0,0-0.1,0-0.1,0
		C82.9,3,82.3,3.6,82.2,4.5C82.3,4.5,82.3,4.5,82.2,4.5L82.2,4.5z"/>
</g>
</svg>
